<svg xmlns="http://www.w3.org/2000/svg" viewBox="0 0 320 400">
  <rect width="320" height="400" fill="#fff9fc"/>
  <path d="M0 284c42-28 88-36 138-16 66 27 124 15 182-34v166H0z" fill="#eaf7ff"/>
  <circle cx="232" cy="82" r="38" fill="#ffe79b"/>
  <path d="M58 235h112c16 0 28 12 28 28v40H30v-40c0-16 12-28 28-28z" fill="#fffefe" stroke="#eadff5" stroke-width="8"/>
  <path d="M84 235v-28c0-24 19-43 43-43h11c24 0 43 19 43 43v28" fill="none" stroke="#b9a8f0" stroke-width="12" stroke-linecap="round"/>
  <circle cx="132" cy="139" r="31" fill="#f9bed8"/>
  <path d="M98 304h124M222 304c20 0 36-16 36-36s-16-36-36-36" fill="none" stroke="#9fd9f6" stroke-width="12" stroke-linecap="round"/>
  <path d="M50 92h88" stroke="#f7a8c8" stroke-width="12" stroke-linecap="round"/>
</svg>
