<svg xmlns="http://www.w3.org/2000/svg" viewBox="0 0 320 400">
  <rect width="320" height="400" fill="#f9fbff"/>
  <path d="M0 286c50-18 94-14 132 12 50 35 112 32 188-8v110H0z" fill="#f7e8ff"/>
  <circle cx="92" cy="82" r="34" fill="#ffe79b"/>
  <path d="M78 236c20-54 58-82 114-82s94 28 114 82" fill="none" stroke="#d9cfff" stroke-width="18" stroke-linecap="round"/>
  <path d="M106 236c16-32 44-48 86-48s70 16 86 48" fill="none" stroke="#9fd9f6" stroke-width="14" stroke-linecap="round"/>
  <circle cx="192" cy="128" r="26" fill="#f9bed8"/>
  <path d="M78 264h218" stroke="#fffefe" stroke-width="28" stroke-linecap="round"/>
  <path d="M86 264h202" stroke="#eadff5" stroke-width="8" stroke-linecap="round"/>
  <path d="M52 136h66M48 166h42" stroke="#b9a8f0" stroke-width="12" stroke-linecap="round"/>
</svg>
